<?xml version="1.0" encoding="UTF-8" standalone="no"?>
<svg
   enable-background="new 0 0 20 20"
   height="24"
   viewBox="0 0 24 24"
   width="24"
   fill="#000000"
   version="1.1"
   id="svg10"
   sodipodi:docname="exclude_shuffle.svg"
   inkscape:version="1.1.1 (3bf5ae0d25, 2021-09-20)"
   xmlns:inkscape="http://www.inkscape.org/namespaces/inkscape"
   xmlns:sodipodi="http://sodipodi.sourceforge.net/DTD/sodipodi-0.dtd"
   xmlns="http://www.w3.org/2000/svg"
   xmlns:svg="http://www.w3.org/2000/svg">
  <sodipodi:namedview
     id="namedview8"
     pagecolor="#ffffff"
     bordercolor="#666666"
     borderopacity="1.0"
     inkscape:pageshadow="2"
     inkscape:pageopacity="0.0"
     inkscape:pagecheckerboard="0"
     showgrid="false"
     inkscape:zoom="12.359637"
     inkscape:cx="11.812644"
     inkscape:cy="17.880784"
     inkscape:window-width="1338"
     inkscape:window-height="979"
     inkscape:window-x="578"
     inkscape:window-y="60"
     inkscape:window-maximized="0"
     inkscape:current-layer="svg10" />
  <defs
     id="defs14" />
  <g
     id="layer1"
     style="display:inline"
     transform="matrix(1.2900203,0,0,1.2900203,-0.89337981,-0.90020339)">
    <path
       id="path6"
       style="stroke-width:2.4"
       transform="scale(0.41666667)"
       d="m 18.552734,7.1992188 c -0.96,0 -1.872922,0.3846406 -2.544922,1.0566406 L 8.2558594,16.007812 c -0.672,0.672001 -1.0566406,1.608922 -1.0566406,2.544922 v 10.871094 c 0,0.96 0.3846406,1.872922 1.0566406,2.544922 l 7.7519526,7.751953 c 0.672001,0.696 1.608922,1.080078 2.544922,1.080078 h 10.871094 c 0.96,0 1.872922,-0.38464 2.544922,-1.05664 l 7.751953,-7.751953 c 0.672,-0.672 1.054688,-1.584922 1.054688,-2.544922 V 18.552734 c 0,-0.96 -0.382688,-1.872922 -1.054688,-2.544922 L 31.96875,8.2558594 c -0.648,-0.672 -1.585484,-1.0566406 -2.521484,-1.0566406 z m 9.087891,8.3125002 h 3.935547 c 0.386383,0 0.701172,0.314789 0.701172,0.701172 v 3.933593 c 0,0.306614 -0.190177,0.549115 -0.431641,0.650391 -0.241471,0.101275 -0.547953,0.06923 -0.761719,-0.144531 L 29.978516,19.544922 17.802734,31.697266 c -0.47449,0.474492 -1.250118,0.474492 -1.724609,0 -0.474276,-0.474274 -0.474275,-1.246427 0,-1.720704 L 28.244141,17.810547 27.136719,16.705078 c -0.213768,-0.213765 -0.247772,-0.520247 -0.146485,-0.761719 0.10128,-0.241471 0.343777,-0.43164 0.650391,-0.43164 z m -10.691406,0.423828 c 0.31061,0 0.625699,0.115935 0.863281,0.353515 l 4.640625,4.642579 a 0.18262874,0.18262874 0 0 1 -0.002,0.259765 l -1.472656,1.453125 a 0.18262874,0.18262874 0 0 1 -0.257813,0 l -4.630859,-4.630859 c -0.474491,-0.474491 -0.474491,-1.250118 0,-1.72461 0.237151,-0.237148 0.548764,-0.353515 0.859375,-0.353515 z m 9.777343,9.345703 a 0.18262874,0.18262874 0 0 1 0.13086,0.05273 l 3.121094,3.13086 1.105468,-1.107422 c 0.212376,-0.217416 0.518093,-0.254 0.759766,-0.154297 0.242465,0.100032 0.433594,0.343776 0.433594,0.650391 v 3.933593 c 0,0.386384 -0.314789,0.701172 -0.701172,0.701172 h -3.935547 c -0.306614,0 -0.549113,-0.190176 -0.650391,-0.43164 -0.10128,-0.241472 -0.06726,-0.547954 0.146485,-0.761719 l 1.117187,-1.117188 -3.121094,-3.11914 a 0.18262874,0.18262874 0 0 1 0,-0.259766 l 1.464844,-1.464844 a 0.18262874,0.18262874 0 0 1 0.128906,-0.05273 z" />
  </g>
  <g
     id="layer2"
     style="display:inline">
    <g
       style="fill:#ff0000;fill-opacity:1"
       id="g1247"
       transform="matrix(0.43263311,0,0,0.43263311,4.7202537,4.8084027)" />
  </g>
</svg>
