<?xml version="1.0" encoding="UTF-8" standalone="no"?>
<svg
   enable-background="new 0 0 20 20"
   height="24"
   viewBox="0 0 24 24"
   width="24"
   fill="#000000"
   version="1.1"
   id="svg10"
   xmlns="http://www.w3.org/2000/svg"
   xmlns:svg="http://www.w3.org/2000/svg">
  <defs
     id="defs14" />
  <g
     id="layer1"
     style="display:inline"
     transform="matrix(1.2870502,0,0,1.2870502,-0.86105704,-0.86105704)">
    <g
       id="g8" />
    <path
       id="path829"
       style="fill:#000000;fill-opacity:1;stroke-width:0.381514"
       d="m 17.28035,14.243237 c -0.763028,-0.228908 -1.548946,-0.01526 -2.056359,0.492153 l -1.079684,0.957599 -0.579901,0.511229 h 0.0038 l -1.026291,0.911817 c -0.309026,0.309026 -0.743952,0.438741 -1.190324,0.350993 -0.476891,-0.09538 -0.86985,-0.476891 -0.980489,-0.94997 -0.198387,-0.850774 0.442556,-1.602357 1.25518,-1.602357 0.347177,0 0.671465,0.13353 0.930893,0.392959 l 0.179312,0.156422 c 0.144975,0.129713 0.362438,0.129713 0.507414,0 0.17168,-0.152606 0.17168,-0.419666 0,-0.572272 l -0.160203,-0.137345 c -0.389144,-0.389143 -0.908003,-0.602792 -1.457382,-0.602792 -1.136911,0 -2.060175,0.923263 -2.060175,2.052545 0,1.129281 0.923264,2.052544 2.060175,2.052544 0.549379,0 1.068238,-0.213649 1.438306,-0.583717 l 1.079685,-0.953783 0.0038,0.0038 0.576086,-0.518859 h -0.0038 l 1.026272,-0.911818 c 0.309026,-0.309026 0.743952,-0.438741 1.190324,-0.350993 0.476891,0.09538 0.86985,0.476893 0.98049,0.94997 0.198387,0.850776 -0.442557,1.602357 -1.25518,1.602357 -0.343362,0 -0.671465,-0.133529 -0.930894,-0.392959 l -0.183128,-0.160258 c -0.144975,-0.129716 -0.362438,-0.129716 -0.507412,0 -0.171682,0.152606 -0.171682,0.419665 0,0.57227 l 0.160235,0.14116 c 0.389144,0.38533 0.904188,0.598976 1.457382,0.598976 1.247551,0 2.235672,-1.106389 2.033468,-2.38446 -0.114448,-0.759212 -0.675279,-1.407786 -1.4116,-1.625249 z M 11.522217,6.4632163 h 1.639811 c 0.160992,0 0.292155,0.1311621 0.292155,0.292155 v 1.6389971 c 0,0.1277558 -0.07924,0.2287979 -0.17985,0.2709963 -0.100613,0.042198 -0.228315,0.028846 -0.317383,-0.060221 L 12.496338,8.1437176 7.4230955,13.207194 c -0.1977042,0.197705 -0.5208825,0.197705 -0.7185871,0 -0.197615,-0.197615 -0.1976146,-0.519345 0,-0.71696 L 11.773682,7.4210613 11.312256,6.9604492 c -0.08907,-0.089069 -0.103234,-0.2167696 -0.06104,-0.3173829 0.0422,-0.1006129 0.143241,-0.17985 0.270997,-0.17985 z m 0,0 h 1.639811 c 0.160992,0 0.292155,0.1311621 0.292155,0.292155 v 1.6389971 c 0,0.1277558 -0.07924,0.2287979 -0.17985,0.2709963 -0.100613,0.042198 -0.228315,0.028846 -0.317383,-0.060221 L 12.496338,8.1437176 7.4230955,13.207194 c -0.1977042,0.197705 -0.5208825,0.197705 -0.7185871,0 -0.197615,-0.197615 -0.1976146,-0.519345 0,-0.71696 L 11.773682,7.4210613 11.312256,6.9604492 c -0.08907,-0.089069 -0.103234,-0.2167696 -0.06104,-0.3173829 0.0422,-0.1006129 0.143241,-0.17985 0.270997,-0.17985 z m -4.4547528,0.176595 c 0.1294209,0 0.260708,0.048306 0.3597005,0.1472979 l 1.9335937,1.934408 c 0.029905,0.030018 0.02953,0.078681 -8.333e-4,0.1082352 l -0.6136067,0.605469 c -0.029695,0.029589 -0.077727,0.029589 -0.1074221,0 L 6.7093717,7.5056967 c -0.1977045,-0.1977046 -0.1977045,-0.5208829 0,-0.7185875 0.098812,-0.098813 0.2286517,-0.1472978 0.358073,-0.1472978 z m 4.0738928,3.8940427 c 0.02038,-2.75e-4 0.04002,0.0076 0.05452,0.02197 l 1.300456,1.304525 0.460612,-0.461426 c 0.08848,-0.09059 0.215871,-0.105833 0.316569,-0.06429 0.101027,0.04168 0.180664,0.143241 0.180664,0.270997 v 1.638997 c 0,0.160993 -0.131163,0.292155 -0.292155,0.292155 h -1.639811 c -0.127756,0 -0.228798,-0.07924 -0.270997,-0.17985 -0.0422,-0.100614 -0.02803,-0.228314 0.06104,-0.317383 l 0.465495,-0.465495 -1.300455,-1.299642 c -0.03013,-0.02979 -0.03013,-0.07845 0,-0.108236 l 0.610351,-0.610351 c 0.0143,-0.01413 0.03361,-0.02203 0.05371,-0.02197 z M 7.7303059,2.9996745 c -0.4,0 -0.7803838,0.1602669 -1.0603842,0.4402669 L 3.4399414,6.6699217 c -0.28,0.2800009 -0.4402669,0.6703842 -0.4402669,1.0603842 v 4.5296221 c 0,0.4 0.1602669,0.780385 0.4402669,1.060385 l 3.2299803,3.22998 c 0.2800009,0.29 0.6703842,0.450033 1.0603842,0.450033 H 8.8252442 C 8.6610047,16.700722 8.6493063,16.401739 8.6066555,16.048177 L 7.3624676,16.043294 3.894043,12.515462 3.8566081,7.5992838 7.6025392,3.8517253 c 0.3994679,-0.00739 0.5995992,-0.011635 0.7495117,-0.013021 0.4497371,-0.00416 0.4505204,0.013021 4.0511071,0.013021 l 3.740234,3.745931 -0.03662,4.9275717 -0.90011,0.996928 c -0.0038,0.01748 0.0026,0.02969 0.0245,0.03399 l 1.091334,-0.01621 c 0.356403,-0.321284 0.655216,-0.853668 0.667295,-1.270237 V 7.7303059 c 0,-0.4 -0.159453,-0.7803838 -0.439453,-1.0603842 L 13.320313,3.4399414 c -0.27,-0.28 -0.660619,-0.4402669 -1.050619,-0.4402669 z" />
  </g>
</svg>
