<?xml version="1.0" encoding="UTF-8" standalone="no"?>
<svg
   enable-background="new 0 0 24 24"
   height="24px"
   viewBox="0 0 24 24"
   width="24px"
   fill="#000000"
   version="1.1"
   id="svg12"
   sodipodi:docname="link_next.svg"
   inkscape:version="1.2.2 (b0a8486541, 2022-12-01)"
   xmlns:inkscape="http://www.inkscape.org/namespaces/inkscape"
   xmlns:sodipodi="http://sodipodi.sourceforge.net/DTD/sodipodi-0.dtd"
   xmlns="http://www.w3.org/2000/svg"
   xmlns:svg="http://www.w3.org/2000/svg">
  <defs
     id="defs16" />
  <sodipodi:namedview
     id="namedview14"
     pagecolor="#ffffff"
     bordercolor="#000000"
     borderopacity="0.25"
     inkscape:showpageshadow="2"
     inkscape:pageopacity="0.0"
     inkscape:pagecheckerboard="0"
     inkscape:deskcolor="#d1d1d1"
     showgrid="false"
     showguides="true"
     inkscape:zoom="22.627418"
     inkscape:cx="11.578873"
     inkscape:cy="16.793785"
     inkscape:window-width="1920"
     inkscape:window-height="1131"
     inkscape:window-x="0"
     inkscape:window-y="32"
     inkscape:window-maximized="1"
     inkscape:current-layer="svg12">
    <sodipodi:guide
       position="16.305799,11.996861"
       orientation="0,-1"
       id="guide176"
       inkscape:locked="false" />
    <sodipodi:guide
       position="3,11.996094"
       orientation="1,0"
       id="guide274"
       inkscape:locked="false" />
    <sodipodi:guide
       position="21,12.003906"
       orientation="1,0"
       id="guide337"
       inkscape:locked="false" />
    <sodipodi:guide
       position="12.020815,13.017748"
       orientation="1,0"
       id="guide339"
       inkscape:locked="false" />
    <sodipodi:guide
       position="12.679688,20.996094"
       orientation="0,-1"
       id="guide341"
       inkscape:locked="false" />
    <sodipodi:guide
       position="12.275641,2.9947327"
       orientation="0,-1"
       id="guide343"
       inkscape:locked="false" />
    <sodipodi:guide
       position="17,12.96875"
       orientation="1,0"
       id="guide3508"
       inkscape:locked="false" />
    <sodipodi:guide
       position="16.1875,15.984375"
       orientation="0,-1"
       id="guide3510"
       inkscape:locked="false" />
    <sodipodi:guide
       position="8.8940775,21.989165"
       orientation="0,-1"
       id="guide4248"
       inkscape:locked="false" />
    <sodipodi:guide
       position="22.914679,1.9692044"
       orientation="0,-1"
       id="guide4277"
       inkscape:locked="false" />
  </sodipodi:namedview>
  <path
     id="path4246-6"
     style="color:#000000;fill:#000000;stroke-linecap:round;stroke-linejoin:round;-inkscape-stroke:none"
     d="m 4.9921875,18.332031 a 1,1 0 0 0 -1,1 1,1 0 0 0 1,1 H 16.617187 a 1,1 0 0 0 0,1.390625 1,1 0 0 0 1.414063,0 l 1.683594,-1.683594 A 1.0001,1.0001 0 0 0 19.007812,18.332031 Z M 17,7 h -3 c -0.55,0 -1,0.45 -1,1 0,0.55 0.45,1 1,1 h 3 c 1.65,0 3,1.35 3,3 0,1.65 -1.35,3 -3,3 h -3 c -0.55,0 -1,0.45 -1,1 0,0.55 0.45,1 1,1 h 3 c 2.76,0 5,-2.24 5,-5 0,-2.76 -2.24,-5 -5,-5 z m -9,5 c 0,0.55 0.45,1 1,1 h 6 c 0.55,0 1,-0.45 1,-1 0,-0.55 -0.45,-1 -1,-1 H 9 c -0.55,0 -1,0.45 -1,1 z m 2,3 H 7 C 5.35,15 4,13.65 4,12 4,10.35 5.35,9 7,9 h 3 C 10.55,9 11,8.55 11,8 11,7.45 10.55,7 10,7 H 7 c -2.76,0 -5,2.24 -5,5 0,2.76 2.24,5 5,5 h 3 c 0.55,0 1,-0.45 1,-1 0,-0.55 -0.45,-1 -1,-1 z" />
</svg>
