<?xml version="1.0" encoding="UTF-8" standalone="no"?>
<svg
   enable-background="new 0 0 24 24"
   height="24px"
   viewBox="0 0 24 24"
   width="24px"
   fill="#000000"
   version="1.1"
   id="svg10"
   xmlns="http://www.w3.org/2000/svg"
   xmlns:svg="http://www.w3.org/2000/svg">
  <defs
     id="defs14" />
  <path
     id="path293"
     style="display:inline;fill:#000000;fill-opacity:1;stroke-width:3.7032;stroke-linecap:round;stroke-linejoin:round"
     d="M 6,5 C 5.4458745,5 5,5.4458746 5,6 v 12 c 0,0.554125 0.4458745,1 1,1 h 12 c 0.554124,0 1,-0.445875 1,-1 V 6 C 19,5.4458746 18.554124,5 18,5 Z m 6.689453,4 C 13.139453,9 13.5,9.3605481 13.5,9.8105469 V 14.25 C 13.5,14.66 13.16,15 12.75,15 12.34,15 12,14.66 12,14.25 V 11 H 11.119141 C 10.779141,11 10.5,10.720859 10.5,10.380859 c 0,-0.229997 0.129844,-0.4507812 0.339844,-0.5507809 L 12.330078,9.0898438 C 12.440078,9.0298438 12.559453,9 12.689453,9 Z" />
</svg>
