<?xml version="1.0" encoding="UTF-8" standalone="no"?>
<svg
   height="24px"
   viewBox="0 0 24 24"
   width="24px"
   fill="#000000"
   version="1.1"
   id="svg6"
   xmlns="http://www.w3.org/2000/svg"
   xmlns:svg="http://www.w3.org/2000/svg">
  <path
     id="path4"
     d="M 7.4589844,3 C 6.4064062,3.0070898 5.3298438,3.3114844 4.3398438,3.9902344 2.9398438,4.9502344 2.06,6.5692969 2,8.2792969 1.86,12.159297 5.3007812,15.269062 10.550781,20.039062 l 0.09961,0.0918 c 0.76,0.69 1.929453,0.688282 2.689453,-0.01172 l 0.109375,-0.09961 c 5.25,-4.76 8.680781,-7.87 8.550781,-11.7499998 -0.06,-1.7 -0.939844,-3.3192968 -2.339844,-4.2792968 C 17.020156,2.1902344 13.76,3.0298437 12,5.0898438 10.9,3.8023438 9.2132812,2.9881836 7.4589844,3 Z M 7.5,5 c 1.54,0 3.040312,0.989375 3.570312,2.359375 h 1.869141 C 13.459453,5.989375 14.96,5 16.5,5 c 2,0 3.5,1.5 3.5,3.5 0,0.1668904 -0.01255,0.3330876 -0.0332,0.5 H 4.0332031 C 4.0125534,8.8330876 4,8.6668904 4,8.5 4,6.5 5.5,5 7.5,5 Z" />
  <defs
     id="defs10" />
</svg>
