<?xml version="1.0" encoding="UTF-8" standalone="no"?>
<svg
   height="24"
   viewBox="0 0 24 24"
   width="24"
   fill="#000000"
   version="1.1"
   id="svg4"
   sodipodi:docname="shuffle_heart.svg"
   inkscape:version="1.1.1 (3bf5ae0d25, 2021-09-20)"
   xmlns:inkscape="http://www.inkscape.org/namespaces/inkscape"
   xmlns:sodipodi="http://sodipodi.sourceforge.net/DTD/sodipodi-0.dtd"
   xmlns="http://www.w3.org/2000/svg"
   xmlns:svg="http://www.w3.org/2000/svg">
  <sodipodi:namedview
     id="namedview5"
     pagecolor="#ffffff"
     bordercolor="#666666"
     borderopacity="1.0"
     inkscape:pageshadow="2"
     inkscape:pageopacity="0.0"
     inkscape:pagecheckerboard="0"
     showgrid="false"
     inkscape:zoom="24.719275"
     inkscape:cx="11.165376"
     inkscape:cy="12.985818"
     inkscape:window-width="1920"
     inkscape:window-height="1011"
     inkscape:window-x="0"
     inkscape:window-y="32"
     inkscape:window-maximized="1"
     inkscape:current-layer="svg4" />
  <defs
     id="defs8" />
  <path
     id="path2"
     style="stroke-width:1"
     d="M 12.832531,0.6816406 C 12.433671,0.67895405 12.050403,0.86449835 11.800305,1.1572265 11.400148,0.6888614 10.659329,0.4979755 10.059094,0.90722655 9.7385142,1.1254938 9.5405087,1.4962976 9.5268672,1.8828125 9.4973122,2.7649759 10.276579,3.471786 11.470227,4.5517578 l 0.02539,0.022461 c 0.172795,0.1591496 0.438533,0.1598093 0.611328,0.00293 l 0.02344,-0.020508 C 13.324032,3.4721253 14.105572,2.7649759 14.073742,1.8828125 14.0601,1.4962976 13.862096,1.1254938 13.541516,0.90722655 13.316428,0.7529048 13.071847,0.6832526 12.832531,0.6816406 Z M 15.510266,4 c -0.45,0 -0.670352,0.5396093 -0.360352,0.8496094 L 16.340344,6.040039 4.5005,17.879883 c -0.39,0.39 -0.39,1.020156 0,1.410156 0.3900002,0.39 1.0201562,0.39 1.4101562,0 L 17.760266,7.459961 18.950695,8.6503905 c 0.31,0.31 0.84961,0.089648 0.84961,-0.3603515 V 4.5 c 0,-0.28 -0.22,-0.5 -0.5,-0.5 z M 5.2153437,4.4072265 c -0.255,0 -0.510078,0.097969 -0.705078,0.2929688 -0.39,0.3900002 -0.39,1.0201562 0,1.4101562 L 8.9702267,10.570313 10.390149,9.169922 5.9204217,4.7001953 c -0.195,-0.195 -0.450078,-0.2929688 -0.705078,-0.2929688 z m 9.4150393,9.0029295 -1.410156,1.410157 3.129882,3.129882 -1.200195,1.200195 c -0.31,0.31 -0.08965,0.84961 0.360352,0.84961 h 3.790039 c 0.28,0 0.5,-0.22 0.5,-0.5 v -3.790039 c 0,-0.45 -0.53961,-0.669609 -0.84961,-0.349609 l -1.190429,1.189452 z" />
</svg>
