<?xml version="1.0" encoding="UTF-8" standalone="no"?>
<svg
   xmlns:dc="http://purl.org/dc/elements/1.1/"
   xmlns:cc="http://creativecommons.org/ns#"
   xmlns:rdf="http://www.w3.org/1999/02/22-rdf-syntax-ns#"
   xmlns:svg="http://www.w3.org/2000/svg"
   xmlns="http://www.w3.org/2000/svg"
   xmlns:sodipodi="http://sodipodi.sourceforge.net/DTD/sodipodi-0.dtd"
   xmlns:inkscape="http://www.inkscape.org/namespaces/inkscape"
   height="24"
   viewBox="0 0 24 24"
   width="24"
   fill="#000000"
   version="1.1"
   id="svg4"
   sodipodi:docname="shuffle_none.svg"
   inkscape:version="0.92.5 (2060ec1f9f, 2020-04-08)">
  <metadata
     id="metadata6">
    <rdf:RDF>
      <cc:Work
         rdf:about="">
        <dc:format>image/svg+xml</dc:format>
        <dc:type
           rdf:resource="http://purl.org/dc/dcmitype/StillImage" />
      </cc:Work>
    </rdf:RDF>
  </metadata>
  <sodipodi:namedview
     id="namedview5"
     pagecolor="#ffffff"
     bordercolor="#666666"
     borderopacity="1.0"
     inkscape:pageshadow="2"
     inkscape:pageopacity="0.0"
     inkscape:pagecheckerboard="0"
     showgrid="false"
     inkscape:zoom="22.627417"
     inkscape:cx="3.2138964"
     inkscape:cy="10.173755"
     inkscape:window-width="3440"
     inkscape:window-height="1371"
     inkscape:window-x="0"
     inkscape:window-y="32"
     inkscape:window-maximized="1"
     inkscape:current-layer="layer2" />
  <defs
     id="defs8" />
  <g
     inkscape:groupmode="layer"
     id="layer2"
     inkscape:label="foreground"
     style="display:inline">
    <g
       id="g871"
       transform="translate(0,0.00488314)">
      <path
         sodipodi:nodetypes="sscssccsssss"
         d="M 16.961818,4.143142 C 16.64362,3.824944 16.106246,4.050693 16.106246,4.4890993 V 6.1726215 H 5.2068579 c -0.5515433,0 -0.9971309,0.445588 -0.9971309,0.997131 1e-7,0.551543 0.4455877,0.997131 0.997131,0.997131 l 10.899388,0.01381 v 1.683521 c 0,0.4384065 0.537374,0.6641565 0.855572,0.3459585 L 19.64178,7.5302105 c 0.19799,-0.19799 0.19799,-0.509117 0,-0.707107 z"
         style="fill:#000000;fill-opacity:1;stroke-width:1"
         id="path2-6"
         inkscape:connector-curvature="0" />
      <path
         sodipodi:nodetypes="sscssccsssss"
         d="m 16.961818,13.780061 c -0.318199,-0.318198 -0.855573,-0.09245 -0.855573,0.345957 V 15.80954 H 5.2068579 c -0.5515433,0 -0.9971309,0.445588 -0.9971309,0.997131 1e-7,0.551543 0.4455877,0.997131 0.997131,0.997131 l 10.899388,0.01381 v 1.683521 c 0,0.438407 0.537374,0.664157 0.855572,0.345959 l 2.679962,-2.679963 c 0.19799,-0.19799 0.19799,-0.509117 0,-0.707107 z"
         style="display:inline;fill:#000000;fill-opacity:1;stroke-width:1"
         id="path2-6-7"
         inkscape:connector-curvature="0" />
    </g>
  </g>
</svg>
